<?xml version="1.0" standalone="no"?><!DOCTYPE svg PUBLIC "-//W3C//DTD SVG 1.1//EN" "http://www.w3.org/Graphics/SVG/1.1/DTD/svg11.dtd"><svg t="1506236131597" class="icon" style="" viewBox="0 0 1024 1024" version="1.1" xmlns="http://www.w3.org/2000/svg" p-id="993" xmlns:xlink="http://www.w3.org/1999/xlink" width="200" height="200"><defs><style type="text/css"></style></defs><path d="M511.685333 1020.745886c-280.430924 0-508.59546-228.163513-508.59546-508.570901 0-280.408411 228.164536-508.528945 508.59546-508.528945 280.407388 0 508.526899 228.120534 508.526899 508.528945C1020.213255 792.582373 792.093744 1020.745886 511.685333 1020.745886zM511.685333 44.227294c-258.071683 0-468.014206 209.92001-468.014206 467.947691 0 258.048147 209.942523 467.991694 468.014206 467.991694 258.049171 0 467.948715-209.943546 467.948715-467.991694C979.634048 254.147304 769.734504 44.227294 511.685333 44.227294z" p-id="994" fill="#d81e06" class="selected"></path><path d="M511.640308 674.935929c-23.348778 0-42.273802 19.057031-42.273802 42.296315 0 23.327288 18.924002 42.340317 42.273802 42.340317 23.37129 0 42.297338-19.013029 42.297338-42.340317C553.804616 693.992961 535.011598 674.935929 511.640308 674.935929" p-id="995" fill="#d81e06"></path><path d="M511.640308 564.109822c-11.17962 0-20.290115-9.109472-20.290115-20.289092L491.350193 264.842901c0-11.202133 9.110495-20.290115 20.290115-20.290115s20.291139 9.087982 20.291139 20.290115l0 278.977829C531.931446 555.00035 522.819928 564.109822 511.640308 564.109822z" p-id="996" fill="#d81e06"></path></svg>